<svg width="11" height="11" viewBox="0 0 11 11" fill="none" xmlns="http://www.w3.org/2000/svg">
<g clip-path="url(#clip0_521_2826)">
<path d="M10.3814 3.53375C10.3015 3.44845 10.2048 3.3806 10.0975 3.33445C9.9901 3.28831 9.87435 3.26488 9.75749 3.26562H9.45155V2.23438C9.45155 1.42484 8.81561 0.859375 7.90467 0.859375H3.09218C2.18124 0.859375 1.5453 1.42484 1.5453 2.23438V3.26562H1.23936C1.12271 3.26569 1.00729 3.28946 0.900105 3.33549C0.792919 3.38152 0.696207 3.44885 0.615838 3.5334C0.535469 3.61795 0.473121 3.71795 0.432578 3.82733C0.392034 3.93671 0.374142 4.05318 0.379988 4.16969L0.479675 6.06031C0.486655 6.19318 0.524454 6.32261 0.590081 6.43835C0.655708 6.55409 0.747364 6.65298 0.8578 6.72719V9.28125C0.8578 9.50917 0.948341 9.72776 1.10951 9.88892C1.27067 10.0501 1.48925 10.1406 1.71718 10.1406H9.27967C9.5076 10.1406 9.72618 10.0501 9.88734 9.88892C10.0485 9.72776 10.139 9.50917 10.139 9.28125V6.72719C10.2495 6.65298 10.3411 6.55409 10.4068 6.43835C10.4724 6.32261 10.5102 6.19318 10.5172 6.06031L10.6169 4.16969C10.6231 4.05323 10.6054 3.93673 10.5649 3.82736C10.5244 3.71799 10.462 3.61807 10.3814 3.53375ZM1.88905 2.23438C1.88905 1.52281 2.49405 1.20312 3.09218 1.20312H7.90467C8.5028 1.20312 9.1078 1.52281 9.1078 2.23438V3.26562H1.88905V2.23438ZM8.07655 6.53125V3.60938H8.4203V6.53125H8.07655ZM8.4203 6.875V7.90625H8.07655V6.875H8.4203ZM7.7328 3.60938V6.53125H3.26405V3.60938H7.7328ZM2.57655 6.53125V3.60938H2.9203V6.53125H2.57655ZM2.9203 6.875V7.90625H2.57655V6.875H2.9203ZM0.823425 6.04313L0.723738 4.1525C0.719988 4.08265 0.730555 4.01277 0.754791 3.94716C0.779028 3.88154 0.816421 3.82158 0.864675 3.77094C0.912473 3.71945 0.970479 3.67849 1.03499 3.65067C1.09951 3.62285 1.16911 3.60879 1.23936 3.60938H2.2328V6.53125H1.33733C1.20551 6.531 1.07879 6.48027 0.983213 6.38949C0.887634 6.2987 0.830456 6.17476 0.823425 6.04313ZM2.2328 9.79688H1.71718C1.58055 9.79647 1.44963 9.74201 1.35302 9.6454C1.25641 9.54879 1.20196 9.41788 1.20155 9.28125V6.86125C1.24639 6.86932 1.29179 6.87391 1.33733 6.875H2.2328V7.90625H2.06093C2.01534 7.90625 1.97162 7.92436 1.93939 7.95659C1.90716 7.98882 1.88905 8.03254 1.88905 8.07812V8.76562C1.88905 8.81121 1.90716 8.85493 1.93939 8.88716C1.97162 8.91939 2.01534 8.9375 2.06093 8.9375H2.2328V9.79688ZM2.9203 9.79688H2.57655V8.9375H2.9203V9.79688ZM2.2328 8.59375V8.25H3.26405V8.59375H2.2328ZM7.7328 9.79688H3.26405V8.9375H3.43593C3.48151 8.9375 3.52523 8.91939 3.55746 8.88716C3.58969 8.85493 3.6078 8.81121 3.6078 8.76562V8.07812C3.6078 8.03254 3.58969 7.98882 3.55746 7.95659C3.52523 7.92436 3.48151 7.90625 3.43593 7.90625H3.26405V6.875H7.7328V7.90625H7.56092C7.51534 7.90625 7.47162 7.92436 7.43939 7.95659C7.40716 7.98882 7.38905 8.03254 7.38905 8.07812V8.76562C7.38905 8.81121 7.40716 8.85493 7.43939 8.88716C7.47162 8.91939 7.51534 8.9375 7.56092 8.9375H7.7328V9.79688ZM8.4203 9.79688H8.07655V8.9375H8.4203V9.79688ZM7.7328 8.59375V8.25H8.76405V8.59375H7.7328ZM9.7953 9.28125C9.79489 9.41788 9.74044 9.54879 9.64383 9.6454C9.54722 9.74201 9.4163 9.79647 9.27967 9.79688H8.76405V8.9375H8.93592C8.98151 8.9375 9.02523 8.91939 9.05746 8.88716C9.08969 8.85493 9.1078 8.81121 9.1078 8.76562V8.07812C9.1078 8.03254 9.08969 7.98882 9.05746 7.95659C9.02523 7.92436 8.98151 7.90625 8.93592 7.90625H8.76405V6.875H9.65952C9.70506 6.87391 9.75046 6.86932 9.7953 6.86125V9.28125ZM10.1734 6.04313C10.1664 6.17476 10.1092 6.2987 10.0136 6.38949C9.91806 6.48027 9.79134 6.531 9.65952 6.53125H8.76405V3.60938H9.75749C9.82774 3.60879 9.89734 3.62285 9.96186 3.65067C10.0264 3.67849 10.0844 3.71945 10.1322 3.77094C10.1804 3.82158 10.2178 3.88154 10.2421 3.94716C10.2663 4.01277 10.2769 4.08265 10.2731 4.1525L10.1734 6.04313Z" fill="#3395FF"/>
</g>
<defs>
<clipPath id="clip0_521_2826">
<rect width="11" height="11" fill="white"/>
</clipPath>
</defs>
</svg>
