<svg width="11" height="11" viewBox="0 0 11 11" fill="none" xmlns="http://www.w3.org/2000/svg">
<path fill-rule="evenodd" clip-rule="evenodd" d="M5.82573 1.57728L6.88753 3.71098C6.93959 3.81822 7.04205 3.89319 7.16128 3.91127L9.53789 4.25463C9.63433 4.26778 9.72145 4.31836 9.77986 4.39512C9.83828 4.47188 9.86316 4.56846 9.84896 4.66338C9.83702 4.74141 9.79908 4.81331 9.74112 4.86776L8.01985 6.53549C7.93285 6.61768 7.89385 6.7376 7.91615 6.85432L8.33092 9.20466C8.36093 9.39832 8.22817 9.58004 8.03229 9.61342C7.95152 9.62589 7.86881 9.61302 7.79587 9.57663L5.67642 8.4689C5.57054 8.41145 5.44219 8.41145 5.33631 8.4689L3.20442 9.58481C3.02555 9.67526 2.80613 9.60802 2.71084 9.43357C2.67369 9.36322 2.6606 9.28293 2.67352 9.20466L3.08828 6.85432C3.10834 6.73775 3.06967 6.61884 2.98459 6.53549L1.25087 4.86776C1.10909 4.72611 1.10909 4.49847 1.25087 4.35682C1.30873 4.30402 1.38067 4.26857 1.45825 4.25463L3.83486 3.91127C3.95352 3.89187 4.05543 3.81731 4.1086 3.71098L5.1704 1.57728C5.21236 1.49076 5.28799 1.42461 5.38014 1.39382C5.47228 1.36304 5.57314 1.37023 5.65983 1.41377C5.73135 1.44952 5.78946 1.50679 5.82573 1.57728Z" stroke="white" stroke-width="0.7" stroke-linecap="round" stroke-linejoin="round"/>
</svg>
