<svg width="20" height="20" viewBox="0 0 20 20" fill="none" xmlns="http://www.w3.org/2000/svg">
<g clip-path="url(#clip0_521_2717)">
<path d="M17.0849 2.90641C15.2048 1.03328 12.7048 0.00114284 10.0412 0C4.55249 0 0.0857968 4.44562 0.0835994 9.90993C0.0829599 11.6566 0.541363 13.3616 1.41266 14.8646L0 20L5.27864 18.622C6.733 19.4116 8.37052 19.8277 10.0369 19.8284H10.0411H10.0412C15.529 19.8284 19.9964 15.382 19.9987 9.91796C19.9996 7.2697 18.9648 4.77968 17.0849 2.90641ZM10.0412 18.1546H10.038C8.55262 18.1538 7.09604 17.7568 5.82556 17.0062L5.5232 16.8278L2.39075 17.6454L3.22707 14.6059L3.03008 14.2942C2.20154 12.9827 1.76415 11.4669 1.76477 9.91057C1.76659 5.36881 5.47914 1.67389 10.0443 1.67389C12.255 1.6748 14.3328 2.53272 15.8955 4.08961C17.4581 5.64649 18.318 7.71614 18.3174 9.91726C18.3155 14.4592 14.6028 18.1546 10.0412 18.1546Z" fill="#E0E0E0"/>
<path d="M0.457031 19.4297L1.80517 14.5289C0.973452 13.0946 0.536072 11.4673 0.536597 9.80077C0.538778 4.58617 4.80148 0.34375 10.039 0.34375C12.581 0.344893 14.9669 1.32983 16.7607 3.11744C18.5549 4.90504 19.5424 7.28116 19.5414 9.80816C19.5392 15.0229 15.2762 19.2657 10.0394 19.2657C10.039 19.2657 10.0396 19.2657 10.0394 19.2657H10.0351C8.44487 19.2652 6.88228 18.8677 5.49444 18.1147L0.457031 19.4297Z" fill="url(#paint0_linear_521_2717)"/>
<path fill-rule="evenodd" clip-rule="evenodd" d="M7.58056 5.70227C7.39634 5.29449 7.20238 5.28632 7.02711 5.27919C6.88376 5.27307 6.71964 5.27344 6.55579 5.27344C6.3918 5.27344 6.12533 5.3348 5.89998 5.57982C5.6745 5.82485 5.03906 6.41718 5.03906 7.62188C5.03906 8.82672 5.92048 9.99087 6.04334 10.1544C6.16633 10.3176 7.74481 12.8689 10.2447 13.8504C12.3223 14.6661 12.7451 14.5038 13.196 14.463C13.647 14.4222 14.6511 13.8708 14.8561 13.299C15.0611 12.7273 15.0611 12.2373 14.9996 12.1348C14.9381 12.0328 14.7741 11.9716 14.5281 11.8491C14.2822 11.7267 13.073 11.1342 12.8476 11.0526C12.6221 10.9709 12.4581 10.9301 12.2941 11.1753C12.1301 11.4202 11.659 11.9716 11.5156 12.1348C11.3721 12.2985 11.2286 12.3189 10.9826 12.1964C10.7366 12.0736 9.9445 11.8153 9.0048 10.9811C8.27366 10.3322 7.78003 9.53063 7.63655 9.28549C7.49306 9.04059 7.62117 8.90794 7.74455 8.78587C7.85497 8.67617 7.99052 8.50003 8.11351 8.35704C8.23624 8.21406 8.27723 8.11202 8.35923 7.94875C8.44122 7.78523 8.40022 7.64226 8.33873 7.51981C8.27723 7.39736 7.79925 6.18644 7.58056 5.70227Z" fill="white"/>
<path d="M17.0059 2.87501C15.1474 1.02338 12.6761 0.00311229 10.0431 0.00195312C4.61742 0.00195312 0.202 4.39654 0.199819 9.79812C0.19918 11.5248 0.652319 13.2102 1.51362 14.6959L0.117188 19.7724L5.33523 18.4101C6.77292 19.1907 8.39163 19.6021 10.0389 19.6027H10.0431H10.0431C15.4679 19.6027 19.884 15.2074 19.8863 9.80602C19.8872 7.18821 18.8642 4.72677 17.0059 2.87501ZM10.0431 17.9482H10.0399C8.57163 17.9474 7.13176 17.5549 5.87587 16.813L5.57698 16.6366L2.48049 17.4448L3.3072 14.4402L3.11247 14.1321C2.29345 12.8356 1.86107 11.3373 1.86171 9.79877C1.86349 5.30917 5.53342 1.65666 10.0462 1.65666C12.2316 1.65756 14.2855 2.50563 15.8303 4.04464C17.3749 5.58366 18.225 7.62954 18.2243 9.80542C18.2224 14.2951 14.5523 17.9482 10.0431 17.9482Z" fill="white"/>
</g>
<defs>
<linearGradient id="paint0_linear_521_2717" x1="9.99922" y1="19.4297" x2="9.99922" y2="0.343782" gradientUnits="userSpaceOnUse">
<stop stop-color="#20B038"/>
<stop offset="1" stop-color="#60D66A"/>
</linearGradient>
<clipPath id="clip0_521_2717">
<rect width="20" height="20" fill="white"/>
</clipPath>
</defs>
</svg>
